<?xml version="1.0" encoding="utf-8"?>
<!-- Generator: Adobe Illustrator 22.0.0, SVG Export Plug-In . SVG Version: 6.00 Build 0)  -->
<svg version="1.1" id="Слой_1" xmlns="http://www.w3.org/2000/svg" xmlns:xlink="http://www.w3.org/1999/xlink" x="0px" y="0px"
	 viewBox="0 0 56 56" style="enable-background:new 0 0 56 56;" xml:space="preserve">
<style type="text/css">
	.st0{display:none;fill:#64A8DF;}
	.st1{fill:#FFFFFF;}
</style>
<rect x="9.9" y="10.5" class="st0" width="40" height="35"/>
<path class="st1" d="M54.9,48.6L38.8,32.4c1.9-3.1,3-6.8,3-10.7c0-11.5-9.4-20.9-20.9-20.9C9.4,0.9,0,10.2,0,21.8
	c0,11.5,9.4,20.9,20.9,20.9c4.8,0,9.2-1.7,12.7-4.4l15.8,15.8c1.4,1.4,3.8,1.4,5.2,0l0.3-0.3C56.4,52.4,56.4,50,54.9,48.6z
	 M7.7,21.8c0-7.3,5.9-13.2,13.2-13.2S34,14.5,34,21.8s-5.9,13.2-13.2,13.2S7.7,29,7.7,21.8z"/>
</svg>
